<mxfile host="app.diagrams.net" agent="Mozilla/5.0 (X11; Linux x86_64; rv:128.0) Gecko/20100101 Firefox/128.0" version="24.8.4">
  <diagram name="Page-1" id="1YoPpYopfpYyrb4UzJVb">
    <mxGraphModel dx="2791" dy="1460" grid="0" gridSize="10" guides="1" tooltips="1" connect="1" arrows="1" fold="1" page="0" pageScale="1" pageWidth="850" pageHeight="1100" math="0" shadow="0">
      <root>
        <mxCell id="0" />
        <mxCell id="1" parent="0" />
        <mxCell id="qEkoarAM16uWG4BHWIVQ-31" value="" style="image;html=1;image=img/lib/clip_art/networking/Router_Icon_128x128.png" parent="1" vertex="1">
          <mxGeometry x="-313" y="49" width="90" height="125" as="geometry" />
        </mxCell>
        <mxCell id="qEkoarAM16uWG4BHWIVQ-35" value="" style="image;html=1;image=img/lib/clip_art/networking/Router_Icon_128x128.png" parent="1" vertex="1">
          <mxGeometry x="-97" y="-57" width="90" height="125" as="geometry" />
        </mxCell>
        <mxCell id="qEkoarAM16uWG4BHWIVQ-36" value="" style="image;html=1;image=img/lib/clip_art/networking/Router_Icon_128x128.png" parent="1" vertex="1">
          <mxGeometry x="-70" y="64" width="90" height="125" as="geometry" />
        </mxCell>
        <mxCell id="qEkoarAM16uWG4BHWIVQ-37" value="" style="image;html=1;image=img/lib/clip_art/networking/Router_Icon_128x128.png" parent="1" vertex="1">
          <mxGeometry x="290" y="-2" width="90" height="125" as="geometry" />
        </mxCell>
        <mxCell id="qEkoarAM16uWG4BHWIVQ-38" value="" style="image;html=1;image=img/lib/clip_art/networking/Router_Icon_128x128.png" parent="1" vertex="1">
          <mxGeometry x="439" y="110" width="90" height="125" as="geometry" />
        </mxCell>
        <mxCell id="qEkoarAM16uWG4BHWIVQ-39" value="" style="image;html=1;image=img/lib/clip_art/networking/Router_Icon_128x128.png" parent="1" vertex="1">
          <mxGeometry x="323" y="228" width="90" height="125" as="geometry" />
        </mxCell>
        <mxCell id="qEkoarAM16uWG4BHWIVQ-40" value="" style="image;html=1;image=img/lib/clip_art/networking/Router_Icon_128x128.png" parent="1" vertex="1">
          <mxGeometry x="-129" y="228" width="90" height="125" as="geometry" />
        </mxCell>
        <mxCell id="qEkoarAM16uWG4BHWIVQ-41" value="" style="image;html=1;image=img/lib/clip_art/networking/Router_Icon_128x128.png" parent="1" vertex="1">
          <mxGeometry x="117" y="96" width="90" height="125" as="geometry" />
        </mxCell>
        <mxCell id="qEkoarAM16uWG4BHWIVQ-42" value="" style="image;html=1;image=img/lib/clip_art/networking/Router_Icon_128x128.png" parent="1" vertex="1">
          <mxGeometry x="-313" y="333" width="90" height="125" as="geometry" />
        </mxCell>
        <mxCell id="qEkoarAM16uWG4BHWIVQ-43" value="" style="image;html=1;image=img/lib/clip_art/networking/Router_Icon_128x128.png" parent="1" vertex="1">
          <mxGeometry x="125" y="333" width="90" height="125" as="geometry" />
        </mxCell>
        <mxCell id="qEkoarAM16uWG4BHWIVQ-44" value="" style="endArrow=none;html=1;rounded=0;entryX=-0.033;entryY=0.56;entryDx=0;entryDy=0;entryPerimeter=0;" parent="1" source="qEkoarAM16uWG4BHWIVQ-31" target="qEkoarAM16uWG4BHWIVQ-35" edge="1">
          <mxGeometry width="50" height="50" relative="1" as="geometry">
            <mxPoint x="-175" y="88" as="sourcePoint" />
            <mxPoint x="-146" y="26" as="targetPoint" />
          </mxGeometry>
        </mxCell>
        <mxCell id="qEkoarAM16uWG4BHWIVQ-48" value="" style="endArrow=none;html=1;rounded=0;" parent="1" edge="1">
          <mxGeometry width="50" height="50" relative="1" as="geometry">
            <mxPoint x="-30" y="308" as="sourcePoint" />
            <mxPoint x="117" y="378" as="targetPoint" />
          </mxGeometry>
        </mxCell>
        <mxCell id="qEkoarAM16uWG4BHWIVQ-49" value="" style="endArrow=none;html=1;rounded=0;entryX=-0.033;entryY=0.56;entryDx=0;entryDy=0;entryPerimeter=0;" parent="1" edge="1">
          <mxGeometry width="50" height="50" relative="1" as="geometry">
            <mxPoint x="212" y="381" as="sourcePoint" />
            <mxPoint x="335" y="309" as="targetPoint" />
          </mxGeometry>
        </mxCell>
        <mxCell id="qEkoarAM16uWG4BHWIVQ-51" value="" style="endArrow=none;html=1;rounded=0;entryX=-0.033;entryY=0.56;entryDx=0;entryDy=0;entryPerimeter=0;" parent="1" edge="1">
          <mxGeometry width="50" height="50" relative="1" as="geometry">
            <mxPoint x="-39" y="92.5" as="sourcePoint" />
            <mxPoint x="-44" y="38" as="targetPoint" />
          </mxGeometry>
        </mxCell>
        <mxCell id="qEkoarAM16uWG4BHWIVQ-52" value="" style="endArrow=none;html=1;rounded=0;entryX=0;entryY=0.5;entryDx=0;entryDy=0;exitX=1;exitY=0.5;exitDx=0;exitDy=0;" parent="1" source="qEkoarAM16uWG4BHWIVQ-31" target="qEkoarAM16uWG4BHWIVQ-36" edge="1">
          <mxGeometry width="50" height="50" relative="1" as="geometry">
            <mxPoint x="-193" y="179" as="sourcePoint" />
            <mxPoint x="-70" y="107" as="targetPoint" />
          </mxGeometry>
        </mxCell>
        <mxCell id="qEkoarAM16uWG4BHWIVQ-54" value="" style="endArrow=none;html=1;rounded=0;exitX=1;exitY=0.5;exitDx=0;exitDy=0;" parent="1" edge="1">
          <mxGeometry width="50" height="50" relative="1" as="geometry">
            <mxPoint x="24" y="133" as="sourcePoint" />
            <mxPoint x="108" y="148.5" as="targetPoint" />
          </mxGeometry>
        </mxCell>
        <mxCell id="qEkoarAM16uWG4BHWIVQ-55" value="" style="endArrow=none;html=1;rounded=0;" parent="1" edge="1">
          <mxGeometry width="50" height="50" relative="1" as="geometry">
            <mxPoint x="394" y="254" as="sourcePoint" />
            <mxPoint x="455" y="202" as="targetPoint" />
          </mxGeometry>
        </mxCell>
        <mxCell id="qEkoarAM16uWG4BHWIVQ-56" value="" style="endArrow=none;html=1;rounded=0;entryX=0.044;entryY=0.336;entryDx=0;entryDy=0;entryPerimeter=0;" parent="1" target="qEkoarAM16uWG4BHWIVQ-38" edge="1">
          <mxGeometry width="50" height="50" relative="1" as="geometry">
            <mxPoint x="362" y="86" as="sourcePoint" />
            <mxPoint x="485" y="14" as="targetPoint" />
          </mxGeometry>
        </mxCell>
        <mxCell id="qEkoarAM16uWG4BHWIVQ-57" value="" style="endArrow=none;html=1;rounded=0;entryX=-0.022;entryY=0.664;entryDx=0;entryDy=0;entryPerimeter=0;" parent="1" target="qEkoarAM16uWG4BHWIVQ-37" edge="1">
          <mxGeometry width="50" height="50" relative="1" as="geometry">
            <mxPoint x="208" y="135" as="sourcePoint" />
            <mxPoint x="311" y="75.5" as="targetPoint" />
          </mxGeometry>
        </mxCell>
        <mxCell id="qEkoarAM16uWG4BHWIVQ-58" value="" style="endArrow=none;html=1;rounded=0;" parent="1" edge="1">
          <mxGeometry width="50" height="50" relative="1" as="geometry">
            <mxPoint x="197" y="186" as="sourcePoint" />
            <mxPoint x="325" y="265" as="targetPoint" />
          </mxGeometry>
        </mxCell>
        <mxCell id="qEkoarAM16uWG4BHWIVQ-59" value="" style="endArrow=none;html=1;rounded=0;exitX=1;exitY=0.25;exitDx=0;exitDy=0;" parent="1" source="qEkoarAM16uWG4BHWIVQ-42" edge="1">
          <mxGeometry width="50" height="50" relative="1" as="geometry">
            <mxPoint x="-223" y="356" as="sourcePoint" />
            <mxPoint x="-135" y="307" as="targetPoint" />
          </mxGeometry>
        </mxCell>
        <mxCell id="qEkoarAM16uWG4BHWIVQ-61" value="R1" style="text;strokeColor=none;fillColor=none;html=1;fontSize=24;fontStyle=1;verticalAlign=middle;align=center;" parent="1" vertex="1">
          <mxGeometry x="-318" y="33" width="100" height="40" as="geometry" />
        </mxCell>
        <mxCell id="qEkoarAM16uWG4BHWIVQ-62" value="R2" style="text;strokeColor=none;fillColor=none;html=1;fontSize=24;fontStyle=1;verticalAlign=middle;align=center;" parent="1" vertex="1">
          <mxGeometry x="-107" y="-78" width="100" height="40" as="geometry" />
        </mxCell>
        <mxCell id="qEkoarAM16uWG4BHWIVQ-63" value="R3" style="text;strokeColor=none;fillColor=none;html=1;fontSize=24;fontStyle=1;verticalAlign=middle;align=center;" parent="1" vertex="1">
          <mxGeometry x="-78" y="161" width="100" height="40" as="geometry" />
        </mxCell>
        <mxCell id="qEkoarAM16uWG4BHWIVQ-64" value="R4" style="text;strokeColor=none;fillColor=none;html=1;fontSize=24;fontStyle=1;verticalAlign=middle;align=center;" parent="1" vertex="1">
          <mxGeometry x="107" y="76" width="100" height="40" as="geometry" />
        </mxCell>
        <mxCell id="qEkoarAM16uWG4BHWIVQ-65" value="R5" style="text;strokeColor=none;fillColor=none;html=1;fontSize=24;fontStyle=1;verticalAlign=middle;align=center;" parent="1" vertex="1">
          <mxGeometry x="280" y="-24" width="100" height="40" as="geometry" />
        </mxCell>
        <mxCell id="qEkoarAM16uWG4BHWIVQ-66" value="R6" style="text;strokeColor=none;fillColor=none;html=1;fontSize=24;fontStyle=1;verticalAlign=middle;align=center;" parent="1" vertex="1">
          <mxGeometry x="437" y="85" width="100" height="40" as="geometry" />
        </mxCell>
        <mxCell id="qEkoarAM16uWG4BHWIVQ-67" value="R7" style="text;strokeColor=none;fillColor=none;html=1;fontSize=24;fontStyle=1;verticalAlign=middle;align=center;" parent="1" vertex="1">
          <mxGeometry x="331" y="330" width="100" height="40" as="geometry" />
        </mxCell>
        <mxCell id="qEkoarAM16uWG4BHWIVQ-68" value="R8" style="text;strokeColor=none;fillColor=none;html=1;fontSize=24;fontStyle=1;verticalAlign=middle;align=center;" parent="1" vertex="1">
          <mxGeometry x="117" y="316" width="100" height="40" as="geometry" />
        </mxCell>
        <mxCell id="qEkoarAM16uWG4BHWIVQ-69" value="R9" style="text;strokeColor=none;fillColor=none;html=1;fontSize=24;fontStyle=1;verticalAlign=middle;align=center;" parent="1" vertex="1">
          <mxGeometry x="-134" y="322" width="100" height="40" as="geometry" />
        </mxCell>
        <mxCell id="qEkoarAM16uWG4BHWIVQ-70" value="R10" style="text;strokeColor=none;fillColor=none;html=1;fontSize=24;fontStyle=1;verticalAlign=middle;align=center;" parent="1" vertex="1">
          <mxGeometry x="-318" y="434" width="100" height="40" as="geometry" />
        </mxCell>
        <mxCell id="qEkoarAM16uWG4BHWIVQ-71" value="" style="endArrow=none;html=1;rounded=0;exitX=1;exitY=0.5;exitDx=0;exitDy=0;entryX=0.011;entryY=0.584;entryDx=0;entryDy=0;entryPerimeter=0;" parent="1" source="qEkoarAM16uWG4BHWIVQ-42" target="qEkoarAM16uWG4BHWIVQ-43" edge="1">
          <mxGeometry width="50" height="50" relative="1" as="geometry">
            <mxPoint x="-196" y="396" as="sourcePoint" />
            <mxPoint x="-49" y="466" as="targetPoint" />
          </mxGeometry>
        </mxCell>
        <mxCell id="qEkoarAM16uWG4BHWIVQ-91" value="&lt;h2&gt;&lt;font face=&quot;Times New Roman&quot; style=&quot;font-size: 18px;&quot;&gt;&amp;nbsp;192.168.2.0 / 24&lt;/font&gt;&lt;/h2&gt;" style="text;html=1;align=center;verticalAlign=middle;whiteSpace=wrap;rounded=0;direction=east;" parent="1" vertex="1">
          <mxGeometry x="-254" y="133" width="201" height="28" as="geometry" />
        </mxCell>
        <mxCell id="qEkoarAM16uWG4BHWIVQ-92" value="&lt;h2&gt;&lt;font face=&quot;Times New Roman&quot; style=&quot;font-size: 18px;&quot;&gt;&amp;nbsp;192.168.3.0 / 24&lt;/font&gt;&lt;/h2&gt;" style="text;html=1;align=center;verticalAlign=middle;whiteSpace=wrap;rounded=0;" parent="1" vertex="1">
          <mxGeometry x="-57" y="40" width="174" height="28" as="geometry" />
        </mxCell>
        <mxCell id="qEkoarAM16uWG4BHWIVQ-93" value="&lt;h2&gt;&lt;font face=&quot;Times New Roman&quot; style=&quot;font-size: 18px;&quot;&gt;&amp;nbsp;192.168.4.0 / 22&lt;/font&gt;&lt;/h2&gt;" style="text;html=1;align=center;verticalAlign=middle;whiteSpace=wrap;rounded=0;" parent="1" vertex="1">
          <mxGeometry x="-26" y="157" width="159" height="10" as="geometry" />
        </mxCell>
        <mxCell id="qEkoarAM16uWG4BHWIVQ-94" value="&lt;h2&gt;&lt;font face=&quot;Times New Roman&quot; style=&quot;font-size: 18px;&quot;&gt;&amp;nbsp;192.168.5.0 / 24&lt;/font&gt;&lt;/h2&gt;" style="text;html=1;align=center;verticalAlign=middle;whiteSpace=wrap;rounded=0;" parent="1" vertex="1">
          <mxGeometry x="79" y="55" width="278" height="30" as="geometry" />
        </mxCell>
        <mxCell id="qEkoarAM16uWG4BHWIVQ-95" value="&lt;h2&gt;&lt;font face=&quot;Times New Roman&quot; style=&quot;font-size: 18px;&quot;&gt;&amp;nbsp;172.16.48.0 / 21&lt;/font&gt;&lt;/h2&gt;" style="text;html=1;align=center;verticalAlign=middle;whiteSpace=wrap;rounded=0;" parent="1" vertex="1">
          <mxGeometry x="323" y="66" width="278" height="30" as="geometry" />
        </mxCell>
        <mxCell id="qEkoarAM16uWG4BHWIVQ-96" value="&lt;h2&gt;&lt;font face=&quot;Times New Roman&quot; style=&quot;font-size: 18px;&quot;&gt;&amp;nbsp;192.168.224.0 / 21&lt;/font&gt;&lt;/h2&gt;" style="text;html=1;align=center;verticalAlign=middle;whiteSpace=wrap;rounded=0;" parent="1" vertex="1">
          <mxGeometry x="159" y="178" width="278" height="30" as="geometry" />
        </mxCell>
        <mxCell id="qEkoarAM16uWG4BHWIVQ-97" value="&lt;h2&gt;&lt;font face=&quot;Times New Roman&quot; style=&quot;font-size: 18px;&quot;&gt;&amp;nbsp;172.16.8.0 / 21&lt;/font&gt;&lt;/h2&gt;" style="text;html=1;align=center;verticalAlign=middle;whiteSpace=wrap;rounded=0;" parent="1" vertex="1">
          <mxGeometry x="369" y="238" width="278" height="30" as="geometry" />
        </mxCell>
        <mxCell id="qEkoarAM16uWG4BHWIVQ-98" value="&lt;h2&gt;&lt;font face=&quot;Times New Roman&quot; style=&quot;font-size: 18px;&quot;&gt;&amp;nbsp;192.168.9.0 / 24&lt;/font&gt;&lt;/h2&gt;" style="text;html=1;align=center;verticalAlign=middle;whiteSpace=wrap;rounded=0;" parent="1" vertex="1">
          <mxGeometry x="109" y="295" width="278" height="30" as="geometry" />
        </mxCell>
        <mxCell id="qEkoarAM16uWG4BHWIVQ-99" value="&lt;h2&gt;&lt;font face=&quot;Times New Roman&quot; style=&quot;font-size: 18px;&quot;&gt;192.168.64.0 / 18&lt;/font&gt;&lt;/h2&gt;" style="text;html=1;align=center;verticalAlign=middle;whiteSpace=wrap;rounded=0;" parent="1" vertex="1">
          <mxGeometry x="-63" y="300" width="278" height="30" as="geometry" />
        </mxCell>
        <mxCell id="qEkoarAM16uWG4BHWIVQ-110" style="edgeStyle=orthogonalEdgeStyle;rounded=0;orthogonalLoop=1;jettySize=auto;html=1;exitX=0.5;exitY=1;exitDx=0;exitDy=0;" parent="1" source="qEkoarAM16uWG4BHWIVQ-91" target="qEkoarAM16uWG4BHWIVQ-91" edge="1">
          <mxGeometry relative="1" as="geometry" />
        </mxCell>
        <mxCell id="qEkoarAM16uWG4BHWIVQ-115" value="&lt;h2&gt;&lt;font face=&quot;Times New Roman&quot; style=&quot;font-size: 18px;&quot;&gt;10.3.64.0 / 18&lt;/font&gt;&lt;/h2&gt;" style="text;html=1;align=center;verticalAlign=middle;whiteSpace=wrap;rounded=0;" parent="1" vertex="1">
          <mxGeometry x="-372" y="292" width="278" height="30" as="geometry" />
        </mxCell>
        <mxCell id="qEkoarAM16uWG4BHWIVQ-116" value="&lt;h2&gt;&lt;font face=&quot;Times New Roman&quot; style=&quot;font-size: 18px;&quot;&gt;10.67.192.0 / 18&lt;/font&gt;&lt;/h2&gt;" style="text;html=1;align=center;verticalAlign=middle;whiteSpace=wrap;rounded=0;" parent="1" vertex="1">
          <mxGeometry x="-196" y="421" width="278" height="30" as="geometry" />
        </mxCell>
        <mxCell id="qEkoarAM16uWG4BHWIVQ-117" value="&lt;h2&gt;&lt;font face=&quot;Times New Roman&quot; style=&quot;font-size: 18px;&quot;&gt;&amp;nbsp;192.168.1.0 / 24&lt;/font&gt;&lt;/h2&gt;" style="text;html=1;align=center;verticalAlign=middle;whiteSpace=wrap;rounded=0;direction=east;" parent="1" vertex="1">
          <mxGeometry x="-328" y="1" width="201" height="28" as="geometry" />
        </mxCell>
      </root>
    </mxGraphModel>
  </diagram>
</mxfile>
